<svg width="200" height="25" viewBox="0 0 200 25" fill="none" xmlns="http://www.w3.org/2000/svg">
<g opacity="0.5">
<path fill-rule="evenodd" clip-rule="evenodd" d="M1 2.89269C1 2.40522 1.19365 1.93772 1.53834 1.59303C1.88303 1.24834 2.35053 1.05469 2.838 1.05469H21.16C21.4016 1.0543 21.6409 1.10155 21.8641 1.19376C22.0874 1.28596 22.2903 1.4213 22.4613 1.59203C22.6322 1.76275 22.7677 1.96551 22.8602 2.1887C22.9526 2.41189 23.0001 2.65111 23 2.89269V21.2147C23.0003 21.4563 22.9529 21.6956 22.8606 21.9189C22.7683 22.1422 22.6328 22.3451 22.462 22.516C22.2912 22.6869 22.0884 22.8224 21.8651 22.9149C21.6419 23.0073 21.4026 23.0548 21.161 23.0547H2.838C2.59655 23.0547 2.35746 23.0071 2.1344 22.9147C1.91134 22.8223 1.70867 22.6868 1.53798 22.516C1.3673 22.3452 1.23193 22.1425 1.13962 21.9194C1.04731 21.6963 0.999869 21.4571 1 21.2157V2.89269ZM9.708 9.44269H12.687V10.9387C13.117 10.0787 14.217 9.30469 15.87 9.30469C19.039 9.30469 19.79 11.0177 19.79 14.1607V19.9827H16.583V14.8767C16.583 13.0867 16.153 12.0767 15.061 12.0767C13.546 12.0767 12.916 13.1657 12.916 14.8767V19.9827H9.708V9.44269ZM4.208 19.8457H7.416V9.30469H4.208V19.8447V19.8457ZM7.875 5.86669C7.88105 6.14136 7.83217 6.41448 7.73124 6.67C7.63031 6.92553 7.47935 7.15832 7.28723 7.35472C7.09511 7.55112 6.8657 7.70716 6.61246 7.81369C6.35921 7.92023 6.08724 7.97511 5.8125 7.97511C5.53776 7.97511 5.26579 7.92023 5.01255 7.81369C4.7593 7.70716 4.52989 7.55112 4.33777 7.35472C4.14565 7.15832 3.99469 6.92553 3.89376 6.67C3.79283 6.41448 3.74395 6.14136 3.75 5.86669C3.76187 5.32754 3.98439 4.81448 4.36989 4.43738C4.75539 4.06027 5.27322 3.84911 5.8125 3.84911C6.35178 3.84911 6.86962 4.06027 7.25512 4.43738C7.64062 4.81448 7.86313 5.32754 7.875 5.86669Z" fill="black"/>
<path fill-rule="evenodd" clip-rule="evenodd" d="M51.465 1.12069C52.638 1.06669 53.012 1.05469 56 1.05469C58.988 1.05469 59.362 1.06769 60.534 1.12069C61.706 1.17369 62.506 1.36069 63.206 1.63169C63.939 1.90869 64.604 2.34169 65.154 2.90169C65.714 3.45069 66.146 4.11469 66.422 4.84869C66.694 5.54869 66.88 6.34869 66.934 7.51869C66.988 8.69369 67 9.06769 67 12.0547C67 15.0427 66.987 15.4167 66.934 16.5897C66.881 17.7597 66.694 18.5597 66.422 19.2597C66.146 19.9938 65.7133 20.6589 65.154 21.2087C64.604 21.7687 63.939 22.2007 63.206 22.4767C62.506 22.7487 61.706 22.9347 60.536 22.9887C59.362 23.0427 58.988 23.0547 56 23.0547C53.012 23.0547 52.638 23.0417 51.465 22.9887C50.295 22.9357 49.495 22.7487 48.795 22.4767C48.0609 22.2007 47.3958 21.7679 46.846 21.2087C46.2864 20.6594 45.8533 19.9946 45.577 19.2607C45.306 18.5607 45.12 17.7607 45.066 16.5907C45.012 15.4157 45 15.0417 45 12.0547C45 9.06669 45.013 8.69269 45.066 7.52069C45.119 6.34869 45.306 5.54869 45.577 4.84869C45.8537 4.11477 46.2871 3.45 46.847 2.90069C47.396 2.34119 48.0605 1.90813 48.794 1.63169C49.494 1.36069 50.294 1.17469 51.464 1.12069H51.465ZM60.445 3.10069C59.285 3.04769 58.937 3.03669 56 3.03669C53.063 3.03669 52.715 3.04769 51.555 3.10069C50.482 3.14969 49.9 3.32869 49.512 3.47969C48.999 3.67969 48.632 3.91669 48.247 4.30169C47.882 4.65674 47.6012 5.08897 47.425 5.56669C47.274 5.95469 47.095 6.53669 47.046 7.60969C46.993 8.76969 46.982 9.11769 46.982 12.0547C46.982 14.9917 46.993 15.3397 47.046 16.4997C47.095 17.5727 47.274 18.1547 47.425 18.5427C47.601 19.0197 47.882 19.4527 48.247 19.8077C48.602 20.1727 49.035 20.4537 49.512 20.6297C49.9 20.7807 50.482 20.9597 51.555 21.0087C52.715 21.0617 53.062 21.0727 56 21.0727C58.938 21.0727 59.285 21.0617 60.445 21.0087C61.518 20.9597 62.1 20.7807 62.488 20.6297C63.001 20.4297 63.368 20.1927 63.753 19.8077C64.118 19.4527 64.399 19.0197 64.575 18.5427C64.726 18.1547 64.905 17.5727 64.954 16.4997C65.007 15.3397 65.018 14.9917 65.018 12.0547C65.018 9.11769 65.007 8.76969 64.954 7.60969C64.905 6.53669 64.726 5.95469 64.575 5.56669C64.375 5.05369 64.138 4.68669 63.753 4.30169C63.3979 3.93676 62.9657 3.6559 62.488 3.47969C62.1 3.32869 61.518 3.14969 60.445 3.10069ZM54.595 15.4457C55.3797 15.7723 56.2534 15.8164 57.0669 15.5704C57.8805 15.3244 58.5834 14.8036 59.0556 14.0969C59.5278 13.3903 59.7401 12.5416 59.656 11.6958C59.572 10.85 59.197 10.0597 58.595 9.45969C58.2112 9.07616 57.7472 8.7825 57.2363 8.59983C56.7255 8.41717 56.1804 8.35005 55.6405 8.4033C55.1006 8.45656 54.5792 8.62886 54.1138 8.90782C53.6485 9.18677 53.2507 9.56543 52.9493 10.0165C52.6479 10.4676 52.4502 10.98 52.3705 11.5166C52.2908 12.0533 52.3312 12.601 52.4885 13.1202C52.6459 13.6394 52.9165 14.1173 53.2807 14.5194C53.645 14.9215 54.0938 15.2379 54.595 15.4457ZM52.002 8.05669C52.527 7.53166 53.1503 7.11519 53.8363 6.83105C54.5223 6.54691 55.2575 6.40066 56 6.40066C56.7425 6.40066 57.4777 6.54691 58.1637 6.83105C58.8497 7.11519 59.473 7.53166 59.998 8.05669C60.523 8.58171 60.9395 9.20501 61.2236 9.89099C61.5078 10.577 61.654 11.3122 61.654 12.0547C61.654 12.7972 61.5078 13.5324 61.2236 14.2184C60.9395 14.9044 60.523 15.5277 59.998 16.0527C58.9377 17.113 57.4995 17.7087 56 17.7087C54.5005 17.7087 53.0623 17.113 52.002 16.0527C50.9417 14.9924 50.346 13.5542 50.346 12.0547C50.346 10.5551 50.9417 9.11702 52.002 8.05669ZM62.908 7.24269C63.0381 7.11996 63.1423 6.97237 63.2143 6.80866C63.2863 6.64495 63.3248 6.46846 63.3274 6.28962C63.33 6.11078 63.2967 5.93324 63.2295 5.7675C63.1622 5.60176 63.0624 5.4512 62.936 5.32473C62.8095 5.19826 62.6589 5.09844 62.4932 5.03121C62.3275 4.96397 62.1499 4.93066 61.9711 4.93327C61.7922 4.93588 61.6157 4.97434 61.452 5.04638C61.2883 5.11843 61.1407 5.22258 61.018 5.35269C60.7793 5.60572 60.6486 5.94181 60.6537 6.28962C60.6588 6.63743 60.7992 6.96957 61.0452 7.21553C61.2911 7.46149 61.6233 7.60192 61.9711 7.60699C62.3189 7.61206 62.655 7.48138 62.908 7.24269Z" fill="black"/>
<g clip-path="url(#clip0_670_8006)">
<path fill-rule="evenodd" clip-rule="evenodd" d="M88 12.1217C88 18.0877 92.333 23.0487 98 24.0547V15.3877H95V12.0547H98V9.38769C98 6.38769 99.933 4.72169 102.667 4.72169C103.533 4.72169 104.467 4.85469 105.333 4.98769V8.05469H103.8C102.333 8.05469 102 8.78769 102 9.72169V12.0547H105.2L104.667 15.3877H102V24.0547C107.667 23.0487 112 18.0887 112 12.1217C112 5.48469 106.6 0.0546875 100 0.0546875C93.4 0.0546875 88 5.48469 88 12.1217Z" fill="black"/>
</g>
<path d="M151.995 6.74352C152.891 6.2076 153.562 5.36375 153.882 4.36952C153.04 4.86934 152.118 5.22141 151.157 5.41052C150.509 4.72486 149.653 4.27143 148.722 4.12012C147.791 3.9688 146.835 4.128 146.003 4.57317C145.172 5.01834 144.509 5.72478 144.118 6.58358C143.728 7.44237 143.63 8.40586 143.841 9.32552C142.135 9.23986 140.466 8.79639 138.942 8.0239C137.419 7.25141 136.074 6.16715 134.997 4.84151C134.449 5.78662 134.281 6.90485 134.528 7.96909C134.775 9.03334 135.417 9.9638 136.325 10.5715C135.644 10.5496 134.978 10.3652 134.382 10.0335V10.0875C134.382 11.0785 134.725 12.0389 135.353 12.8059C135.98 13.5728 136.854 14.0991 137.825 14.2955C137.193 14.4674 136.53 14.4928 135.887 14.3695C136.162 15.2218 136.696 15.9671 137.414 16.5014C138.133 17.0356 139.001 17.3321 139.896 17.3495C138.376 18.5426 136.498 19.1897 134.566 19.1865C134.223 19.1865 133.881 19.1665 133.541 19.1275C135.503 20.3885 137.787 21.0578 140.12 21.0555C141.727 21.0666 143.319 20.7582 144.806 20.1485C146.292 19.5387 147.643 18.6396 148.779 17.5035C149.915 16.3674 150.814 15.0169 151.423 13.5304C152.033 12.0439 152.341 10.4511 152.33 8.84451C152.33 8.65851 152.326 8.47352 152.317 8.28952C153.157 7.68213 153.883 6.92968 154.459 6.06752C153.676 6.41456 152.845 6.64242 151.995 6.74352Z" fill="black"/>
<path d="M195.59 6.74469C194.593 6.52548 193.692 5.99612 193.014 5.23258C192.337 4.46904 191.919 3.51056 191.82 2.49469V2.05469H188.37V15.7247C188.371 16.3312 188.181 16.9227 187.827 17.4151C187.472 17.9076 186.972 18.2762 186.397 18.4687C185.822 18.6611 185.201 18.6678 184.622 18.4876C184.042 18.3074 183.535 17.9495 183.17 17.4647C182.844 17.0355 182.644 16.5236 182.593 15.9867C182.542 15.4498 182.643 14.9094 182.883 14.4267C183.123 13.9439 183.494 13.5381 183.953 13.2549C184.412 12.9718 184.941 12.8228 185.48 12.8247C185.778 12.823 186.075 12.8668 186.36 12.9547V9.45469C186.028 9.41361 185.694 9.3969 185.36 9.40469C184.129 9.43757 182.935 9.82862 181.923 10.53C180.911 11.2313 180.126 12.2125 179.663 13.3533C179.201 14.4942 179.081 15.7452 179.318 16.9532C179.556 18.1613 180.14 19.2738 181 20.1547C181.882 21.0509 183.01 21.6648 184.241 21.9185C185.472 22.1721 186.751 22.0541 187.915 21.5793C189.079 21.1045 190.075 20.2944 190.778 19.2519C191.48 18.2095 191.857 16.9817 191.86 15.7247V8.72469C193.252 9.71864 194.92 10.2503 196.63 10.2447V6.84469C196.294 6.84607 195.959 6.81256 195.63 6.74469H195.59Z" fill="black"/>
</g>
<defs>
<clipPath id="clip0_670_8006">
<rect width="24" height="24" fill="white" transform="translate(88 0.0546875)"/>
</clipPath>
</defs>
</svg>
